<svg xmlns="http://www.w3.org/2000/svg" id="prefix__age_to_start_investing-01" width="49.031" height="49.787" data-name="age to start investing-01" viewBox="0 0 49.031 49.787">
    <defs>
        <style>
            .prefix__cls-2{fill:#157bfb}.prefix__cls-3{fill:none;stroke:#157bfb;stroke-linecap:round;stroke-linejoin:round}
        </style>
    </defs>
    <path id="prefix__Path_2720" fill="#0f56af" d="M30.077 22.721a.267.267 0 0 0-.232-.093h-1.72a3.486 3.486 0 0 0-.651-1.453H29.8a.349.349 0 0 0 .232-.093.314.314 0 0 0 .081-.232v-1.035a.314.314 0 0 0-.081-.232.349.349 0 0 0-.232-.093h-8.37a.325.325 0 0 0-.232.093.279.279 0 0 0-.093.232v1.348a.338.338 0 0 0 .325.325h1.464c1.418 0 2.324.372 2.708 1.162H21.43a.279.279 0 0 0-.232.093.267.267 0 0 0-.093.232V24a.279.279 0 0 0 .093.232.325.325 0 0 0 .232.093h4.312a2 2 0 0 1-1.034 1.267 4.649 4.649 0 0 1-2.15.43H21.4a.314.314 0 0 0-.325.325v1.278a.256.256 0 0 0 .093.221c1.29 1.383 2.964 3.3 5.021 5.811a.314.314 0 0 0 .256.116h1.976a.291.291 0 0 0 .291-.186.267.267 0 0 0 0-.337q-2.94-3.626-4.649-5.416a5.055 5.055 0 0 0 2.789-1.162 3.719 3.719 0 0 0 1.3-2.324h1.7a.3.3 0 0 0 .232-.093.279.279 0 0 0 .093-.232V23a.279.279 0 0 0-.093-.232zm0 0" data-name="Path 2720" transform="translate(-1.122 -.419)"/>
    <path id="prefix__Path_2721" d="M25.216 10.181a1.546 1.546 0 0 1-1.546-1.534V4.626a1.546 1.546 0 0 1 3.091 0v4.021a1.546 1.546 0 0 1-1.546 1.534zm0 0" class="prefix__cls-2" data-name="Path 2721" transform="translate(-.7 -3.08)"/>
    <path id="prefix__Path_2722" d="M36.824 14.827a1.546 1.546 0 0 1-1.092-2.627l2.847-2.847a1.546 1.546 0 0 1 2.185 0 1.569 1.569 0 0 1 0 2.185l-2.847 2.836a1.546 1.546 0 0 1-1.092.453zm0 0" class="prefix__cls-2" data-name="Path 2722" transform="translate(1.184 -2.136)"/>
    <path id="prefix__Path_2723" d="M45.638 26.04h-4.021a1.546 1.546 0 0 1 0-3.08h4.021a1.546 1.546 0 0 1 0 3.08zm0 0" class="prefix__cls-2" data-name="Path 2723" transform="translate(1.981 .144)"/>
    <path id="prefix__Path_2724" d="M39.7 40.52a1.546 1.546 0 0 1-1.092-.453l-2.85-2.847a1.546 1.546 0 1 1 2.185-2.127l2.847 2.8a1.546 1.546 0 0 1-1.09 2.627zm0 0" class="prefix__cls-2" data-name="Path 2724" transform="translate(1.158 2.003)"/>
    <path id="prefix__Path_2725" d="M11.154 40.5a1.5 1.5 0 0 1-1.081-.453 1.534 1.534 0 0 1 0-2.173l2.836-2.8a1.546 1.546 0 1 1 2.185 2.173L12.246 40.1a1.546 1.546 0 0 1-1.092.453zm0 0" class="prefix__cls-2" data-name="Path 2725" transform="translate(-2.978 2.02)"/>
    <path id="prefix__Path_2726" d="M9.338 26.04H5.317a1.546 1.546 0 0 1 0-3.08h4.021a1.546 1.546 0 0 1 0 3.08zm0 0" class="prefix__cls-2" data-name="Path 2726" transform="translate(-3.905 .144)"/>
    <path id="prefix__Path_2727" d="M13.992 14.815a1.546 1.546 0 0 1-1.092-.453l-2.847-2.836a1.546 1.546 0 0 1 2.173-2.185l2.847 2.847a1.546 1.546 0 0 1-1.081 2.626zm0 0" class="prefix__cls-2" data-name="Path 2727" transform="translate(-2.969 -2.124)"/>
    <path id="prefix__Path_2728" d="M32.019 40.19v2.568a3.6 3.6 0 0 1-3.591 3.591h-5.137c-1.72 0-3.591-1.313-3.591-4.184V40.19zm0 0" class="prefix__cls-3" data-name="Path 2728" transform="translate(-1.344 2.938)"/>
    <path id="prefix__Path_2729" d="M36.031 15.1a14.374 14.374 0 1 0-17.7 22.653 6.183 6.183 0 0 1 2.326 3.926.349.349 0 0 1 .151 0h12.33a.174.174 0 0 1 .1 0 6.845 6.845 0 0 1 2.626-4.114 14.387 14.387 0 0 0 .163-22.476z" class="prefix__cls-3" data-name="Path 2729" transform="translate(-2.462 -1.626)"/>
    <path id="prefix__Path_2730" d="M19.57 37.541h.151a.349.349 0 0 0-.151 0zm0 0" data-name="Path 2730" transform="translate(-1.365 2.507)"/>
    <path id="prefix__Path_2731" d="M30.4 37.541a.174.174 0 0 0-.1 0zm0 0" data-name="Path 2731" transform="translate(.375 2.507)"/>
</svg>
