<svg xmlns="http://www.w3.org/2000/svg" width="18" height="18" viewBox="0 0 18 18"><defs><style>.a{fill:none;}.b{fill:#69be86;}</style></defs><path class="a" d="M0,0H18V18H0Z"/><path class="b" d="M12.75,10.25H10.5a.752.752,0,0,0-.75.75v2.25a.752.752,0,0,0,.75.75h2.25a.752.752,0,0,0,.75-.75V11A.752.752,0,0,0,12.75,10.25Zm0-7.5V3.5h-6V2.75a.75.75,0,1,0-1.5,0V3.5H4.5A1.493,1.493,0,0,0,3.008,5L3,15.5A1.5,1.5,0,0,0,4.5,17H15a1.5,1.5,0,0,0,1.5-1.5V5A1.5,1.5,0,0,0,15,3.5h-.75V2.75a.75.75,0,1,0-1.5,0Zm1.5,12.75h-9a.752.752,0,0,1-.75-.75V7.25H15v7.5A.752.752,0,0,1,14.25,15.5Z" transform="translate(-0.75 -0.5)"/></svg>