<svg xmlns="http://www.w3.org/2000/svg" width="20" height="20" viewBox="0 0 20 20">
    <defs>
        <style>
            .cls-1,.cls-2{fill:#0065ff}.cls-1{opacity:0}
        </style>
    </defs>
    <g id="Smock_CallCenter_18_N" transform="translate(.058 .058)">
        <path id="Canvas" d="M0 0h20v20H0z" class="cls-1" transform="translate(-.058 -.058)"/>
        <path id="Path_2389" d="M17.068 7.628h-.8A6.53 6.53 0 0 0 9.837 1 6.53 6.53 0 0 0 3.41 7.628h-.8A1.633 1.633 0 0 0 1 9.285V12.6a1.633 1.633 0 0 0 1.607 1.657h2.41V7.628h-.04a4.938 4.938 0 0 1 4.86-5.012A4.938 4.938 0 0 1 14.7 7.628h-.04v6.262a5.624 5.624 0 0 1-3.43 2.651 1.721 1.721 0 0 0-1.39-.629 1.46 1.46 0 0 0-1.607 1.243A1.46 1.46 0 0 0 9.837 18.4a1.54 1.54 0 0 0 1.579-1.032 6.452 6.452 0 0 0 3.975-3.11h1.677a1.633 1.633 0 0 0 1.606-1.658V9.285a1.633 1.633 0 0 0-1.606-1.657z" class="cls-2" data-name="Path 2389" transform="translate(.105 .105)"/>
    </g>
</svg>
