<svg xmlns="http://www.w3.org/2000/svg" id="noun_global_1410805" width="34.644" height="31.968" viewBox="0 0 34.644 31.968">
    <defs>
        <style>
            .cls-1{fill:#7c7c7c}
        </style>
    </defs>
    <g id="Group_315" data-name="Group 315">
        <g id="Group_307" data-name="Group 307" transform="translate(1.128)">
            <g id="Group_304" data-name="Group 304">
                <path id="Path_2385" d="M6.49 24.935a.827.827 0 0 1-.6-.183l-.657-.652c-2.965-2.965-1.214-9.54 3.9-14.657 3.307-3.307 7.41-5.362 10.708-5.362A5.43 5.43 0 0 1 23.79 5.54l.657.657c.161.161.211.412.174.869a5.525 5.525 0 0 1-4.483 4.892 4.529 4.529 0 0 1-.835.1.762.762 0 0 1-.547-.173l-1.036-1.036a1.787 1.787 0 0 0-1.316-.47 6.56 6.56 0 0 0-4.2 2.134c-1.945 1.945-2.707 4.469-1.664 5.512l1.036 1.036c.205.205.228.569.083 1.34a5.513 5.513 0 0 1-4.637 4.491 4.079 4.079 0 0 1-.532.043zm-.123-.735a2.958 2.958 0 0 0 .561-.03 4.785 4.785 0 0 0 4.02-3.9 2.738 2.738 0 0 0 .076-.732l-.995-.995C8.662 17.172 9.393 14.3 11.694 12A7.291 7.291 0 0 1 16.4 9.65a2.519 2.519 0 0 1 1.832.684l.993.993a2.846 2.846 0 0 0 .775-.088A4.793 4.793 0 0 0 23.9 7a1.468 1.468 0 0 0 0-.331l-.62-.62a4.722 4.722 0 0 0-3.434-1.245c-3.111 0-7.016 1.973-10.192 5.148C4.818 14.787 3.068 20.9 5.748 23.581z" class="cls-1" data-name="Path 2385" transform="translate(-3.79 -4.077)"/>
            </g>
            <g id="Group_305" data-name="Group 305" transform="translate(1.115 13.988)">
                <path id="Path_2386" d="M5.683 29.159a.365.365 0 0 1-.258-.622l5.167-5.167a.365.365 0 1 1 .515.515l-5.166 5.167a.363.363 0 0 1-.258.107z" class="cls-1" data-name="Path 2386" transform="translate(-5.319 -23.263)"/>
            </g>
            <g id="Group_306" data-name="Group 306" transform="translate(13.825 1)">
                <path id="Path_2387" d="M23.116 11.327a.365.365 0 0 1-.258-.622l5.15-5.15a.365.365 0 1 1 .515.515l-5.15 5.15a.363.363 0 0 1-.257.107z" class="cls-1" data-name="Path 2387" transform="translate(-22.751 -5.449)"/>
            </g>
        </g>
        <g id="Group_313" data-name="Group 313" transform="translate(13.378 10.703)">
            <g id="Group_308" data-name="Group 308">
                <path id="Path_2388" d="M31.225 40.022a10.633 10.633 0 1 1 10.633-10.633 10.645 10.645 0 0 1-10.633 10.633zm0-20.536a9.9 9.9 0 1 0 9.9 9.9 9.915 9.915 0 0 0-9.9-9.901z" class="cls-1" data-name="Path 2388" transform="translate(-20.592 -18.756)"/>
            </g>
            <g id="Group_309" data-name="Group 309" transform="translate(6.167)">
                <path id="Path_2389" d="M33.517 40.022c-2.5 0-4.466-4.67-4.466-10.633s1.962-10.633 4.466-10.633 4.466 4.67 4.466 10.633-1.962 10.633-4.466 10.633zm0-20.536c-1.8 0-3.737 3.979-3.737 9.9s1.932 9.9 3.737 9.9 3.737-3.979 3.737-9.9-1.933-9.901-3.737-9.901z" class="cls-1" data-name="Path 2389" transform="translate(-29.051 -18.756)"/>
            </g>
            <g id="Group_310" data-name="Group 310" transform="translate(0 10.268)">
                <path id="Path_2390" d="M41.476 33.569H20.957a.365.365 0 0 1 0-.729h20.519a.365.365 0 0 1 0 .729z" class="cls-1" data-name="Path 2390" transform="translate(-20.592 -32.84)"/>
            </g>
            <g id="Group_311" data-name="Group 311" transform="translate(1.209 5.484)">
                <path id="Path_2391" d="M40.813 27.006h-18.2a.365.365 0 0 1 0-.729h18.2a.365.365 0 1 1 0 .729z" class="cls-1" data-name="Path 2391" transform="translate(-22.25 -26.277)"/>
            </g>
            <g id="Group_312" data-name="Group 312" transform="translate(1.2 15.053)">
                <path id="Path_2392" d="M40.8 40.131H22.6a.365.365 0 0 1 0-.729h18.2a.365.365 0 0 1 0 .729z" class="cls-1" data-name="Path 2392" transform="translate(-22.238 -39.402)"/>
            </g>
        </g>
        <g id="Group_314" data-name="Group 314" transform="translate(0 20.053)">
            <path id="Path_2393" d="M13.535 41.059a.363.363 0 0 1-.258-.107l-2.244-2.244a2.137 2.137 0 0 0-3.019 0 3.381 3.381 0 0 1-4.782-4.782l2.239-2.239a.365.365 0 0 1 .515.515l-2.239 2.24A2.652 2.652 0 0 0 7.5 38.193a2.867 2.867 0 0 1 4.05 0l2.244 2.244a.365.365 0 0 1-.258.622z" class="cls-1" data-name="Path 2393" transform="translate(-2.243 -31.581)"/>
        </g>
    </g>
</svg>
