<svg xmlns="http://www.w3.org/2000/svg" id="noun_Headset_350415" width="36.198" height="35.688" viewBox="0 0 36.198 35.688">
    <defs>
        <style>
            .cls-1{fill:#7c7c7c}
        </style>
    </defs>
    <g id="Group_316" data-name="Group 316">
        <path id="Path_2394" d="M35.353 20.388h-1.031v-.697C34.309 12.345 33.95 5 25.762 2.578a1.073 1.073 0 0 0-.828-1.014A28.353 28.353 0 0 0 18.68.937h-.164a28.277 28.277 0 0 0-6.3.638 1.072 1.072 0 0 0-.816 1.014c-8.149 2.429-8.506 9.767-8.518 17.1v.697H1.845A1.347 1.347 0 0 0 .5 21.733v4.991a1.347 1.347 0 0 0 1.345 1.345h.815a.82.82 0 0 0 .217-.032v.729a1.9 1.9 0 0 0 1.9 1.9h1.57a1.9 1.9 0 0 0 1.9-1.9v-9.075a1.9 1.9 0 0 0-1.9-1.9H4.774a1.883 1.883 0 0 0-1.266.494C3.645 10.5 4.731 5.219 11.552 3.182a1.067 1.067 0 0 0 1.156.483 26.166 26.166 0 0 1 5.81-.581h.16a26.229 26.229 0 0 1 5.774.573A1.083 1.083 0 0 0 25.6 3.17c6.857 2.025 7.95 7.312 8.087 15.118a1.883 1.883 0 0 0-1.266-.494h-1.569a1.9 1.9 0 0 0-1.9 1.9v9.075a1.9 1.9 0 0 0 1.9 1.9h1.572a1.9 1.9 0 0 0 1.9-1.9v-.7h1.031a1.347 1.347 0 0 0 1.345-1.345v-4.991a1.347 1.347 0 0 0-1.347-1.345zM2.66 27.455h-.815a.732.732 0 0 1-.732-.732v-4.99A.733.733 0 0 1 1.845 21h1.032v6.238a.217.217 0 0 1-.217.217zm2.114-9.048h1.573a1.285 1.285 0 0 1 1.283 1.284v9.075a1.285 1.285 0 0 1-1.284 1.284H4.774a1.285 1.285 0 0 1-1.284-1.284v-8.072-1.03a1.283 1.283 0 0 1 1.284-1.257zM25.142 2.714a.459.459 0 0 1-.552.345 26.844 26.844 0 0 0-5.911-.588h-.161a26.764 26.764 0 0 0-5.95.6.46.46 0 0 1-.208-.9 27.692 27.692 0 0 1 6.157-.622h.163a27.743 27.743 0 0 1 6.118.612.461.461 0 0 1 .344.553zm8.566 26.051a1.285 1.285 0 0 1-1.284 1.284h-1.572a1.285 1.285 0 0 1-1.284-1.284v-9.074a1.285 1.285 0 0 1 1.284-1.283h1.572a1.283 1.283 0 0 1 1.281 1.257V28.766zm2.377-2.042a.732.732 0 0 1-.732.732h-1.032V21h1.031a.733.733 0 0 1 .732.732z" class="cls-1" data-name="Path 2394" transform="translate(-.5 -.937)"/>
        <path id="Path_2395" d="M46.938 52.782a5.527 5.527 0 0 1-4.573 2.418H37.51a.307.307 0 1 0 0 .614h4.855a6.141 6.141 0 0 0 5.081-2.69.307.307 0 1 0-.507-.345z" class="cls-1" data-name="Path 2395" transform="translate(-14.685 -20.921)"/>
        <path id="Path_2396" d="M29.975 55.563h-3.741a1.086 1.086 0 0 0 0 2.173h3.741a1.086 1.086 0 1 0 0-2.173zm0 1.559h-3.741a.473.473 0 0 1 0-.946h3.741a.473.473 0 1 1 0 .946z" class="cls-1" data-name="Path 2396" transform="translate(-10.025 -22.048)"/>
    </g>
</svg>
