<svg width="11" height="14" viewBox="0 0 11 14" fill="none" xmlns="http://www.w3.org/2000/svg">
<path d="M3.66666 2.33331H2.33333C1.97971 2.33331 1.64057 2.47379 1.39052 2.72384C1.14048 2.97389 1 3.31302 1 3.66665V11.6666C1 12.0203 1.14048 12.3594 1.39052 12.6094C1.64057 12.8595 1.97971 13 2.33333 13H8.99999C9.35362 13 9.69275 12.8595 9.9428 12.6094C10.1929 12.3594 10.3333 12.0203 10.3333 11.6666V3.66665C10.3333 3.31302 10.1929 2.97389 9.9428 2.72384C9.69275 2.47379 9.35362 2.33331 8.99999 2.33331H7.66666" stroke="#325BF7" stroke-width="0.666666" stroke-linecap="round" stroke-linejoin="round"/>
<path d="M6.33329 1H4.99996C4.26358 1 3.66663 1.59695 3.66663 2.33333C3.66663 3.06971 4.26358 3.66666 4.99996 3.66666H6.33329C7.06967 3.66666 7.66662 3.06971 7.66662 2.33333C7.66662 1.59695 7.06967 1 6.33329 1Z" stroke="#325BF7" stroke-width="0.666666" stroke-linecap="round" stroke-linejoin="round"/>
<path d="M3.66663 7H3.9763" stroke="#325BF7" stroke-width="0.666666" stroke-linecap="round" stroke-linejoin="round"/>
<path d="M5.55908 7H7.88166" stroke="#325BF7" stroke-width="0.666666" stroke-linecap="round" stroke-linejoin="round"/>
<path d="M3.66663 9.66663H3.9763" stroke="#325BF7" stroke-width="0.666666" stroke-linecap="round" stroke-linejoin="round"/>
<path d="M5.55908 9.66663H7.88166" stroke="#325BF7" stroke-width="0.666666" stroke-linecap="round" stroke-linejoin="round"/>
</svg>
