<svg xmlns="http://www.w3.org/2000/svg" width="22.738" height="25.166" viewBox="0 0 22.738 25.166"><g transform="translate(-6.408 -4.055)"><path d="M28.5,8.515A96.665,96.665,0,0,1,17.773,4.6,96.664,96.664,0,0,1,7,8.515S5.26,24.551,17.773,28.694c12.488-4.143,10.753-20.18,10.753-20.18Zm0,0" fill="none" stroke="#157bfb" stroke-miterlimit="10" stroke-width="1"/><path d="M19.078,28.043c-4.137-1.585-6.881-4.935-8.16-9.955a25.9,25.9,0,0,1-.732-6.725c4.245-1.351,7.451-2.648,8.892-3.254,1.417.6,4.623,1.9,8.892,3.254a25.9,25.9,0,0,1-.732,6.725C25.934,23.108,23.19,26.458,19.078,28.043Zm0,0" transform="translate(-1.305 -1.403)" fill="none" stroke="#deebff" stroke-miterlimit="10" stroke-width="1"/><path d="M-1708.305-579.841a4.953,4.953,0,0,1,4.954-4.954,4.953,4.953,0,0,1,4.953,4.954Zm3.286-5.639a2.312,2.312,0,0,1-.485-2.527,2.312,2.312,0,0,1,2.153-1.41,2.312,2.312,0,0,1,2.311,2.312h-.024a2.311,2.311,0,0,1-1.432,2.138,2.311,2.311,0,0,1-.879.174A2.312,2.312,0,0,1-1705.019-585.481Z" transform="translate(1721.125 600.034)" fill="none" stroke="#0f56af" stroke-miterlimit="10" stroke-width="1"/></g></svg>