<svg xmlns="http://www.w3.org/2000/svg" width="37.105" height="37.106" viewBox="0 0 37.105 37.106">
    <defs>
        <style>
            .prefix__cls-2{fill:#157bfb}
        </style>
    </defs>
    <g id="prefix__noun_Pay_Money_2550537" data-name="noun_Pay Money_2550537" transform="translate(-2 -2)">
        <g id="prefix__Group_568" data-name="Group 568" transform="translate(2 2)">
            <path id="prefix__Path_2681" fill="#0f56af" d="M29.2 45.947a.618.618 0 0 0-.231.044L23.2 47.723a.609.609 0 0 1-.355 0l-1.9-.57a2.474 2.474 0 0 0-.4-4.917h-3.584l-1.85-.742A6.935 6.935 0 0 0 12.528 41h-.485a6.9 6.9 0 0 0-4.717 1.855H2.618a.618.618 0 0 0-.618.619v9.9a.618.618 0 0 0 .618.618h17.5a11.688 11.688 0 0 0 4.629-.95l5.428-2.328a2.481 2.481 0 0 0-.977-4.762zM3.237 44.092h3.71v8.658h-3.71zm26.457 5.481l-5.43 2.327a10.455 10.455 0 0 1-4.14.85H8.184v-9.012a5.672 5.672 0 0 1 3.861-1.5h.485a5.7 5.7 0 0 1 2.123.409l1.959.784a.626.626 0 0 0 .23.044h3.711a1.237 1.237 0 0 1 0 2.474h-3.711a.618.618 0 0 0-.177 1.211l5.827 1.748a1.836 1.836 0 0 0 1.067 0l5.732-1.719a1.245 1.245 0 0 1 .4 2.386z" data-name="Path 2681" transform="translate(-2 -16.881)"/>
            <path id="prefix__Path_2682" d="M41.54 2H23.606a.615.615 0 0 0-.224.042L13.707 5.8a2.513 2.513 0 0 0-.816.524h-2.273a.618.618 0 0 0-.618.623v17.317a.618.618 0 0 0 .618.618h25.975a.618.618 0 0 0 .618-.618V13.132h4.329a.618.618 0 0 0 .618-.618v-9.9A.618.618 0 0 0 41.54 2zm-30.3 17.935h9.9v1.237h-9.9zm11.132 0h3.711v1.237h-3.714zm-6.729-9.415l5.489-1.689v7.393h-5.013a3.059 3.059 0 0 0-2.408-2.405v-1.986l.046-.009a3.079 3.079 0 0 0 1.886-1.3zm6.725-1.458l.1.019c-.033.017-.062.04-.1.059zm0 4.344a2.448 2.448 0 0 0 1.237.344h2.474v2.474h-3.71zm9.091 1.581a1.872 1.872 0 0 0 .2-.007 3.112 3.112 0 0 0-.568 1.244h-3.78v-2.367a8.02 8.02 0 0 0 4.149 1.13zm-5.38 2.474V18.7h-3.71v-1.239zm1.237 2.474h8.658v1.237h-8.658zm8.658-1.235h-8.658v-1.239h4.335a.618.618 0 0 0 .618-.618 1.83 1.83 0 0 1 1.849-1.849.618.618 0 0 0 .618-.618v-.1a7.933 7.933 0 0 0 .83-.433l.407-.241zM14.155 6.957l9.567-3.72h12.252v8.926l-1.043.625a6.8 6.8 0 0 1-3.53.962 6.727 6.727 0 0 1-3.742-1.133.623.623 0 0 0-.343-.1h-3.71a1.237 1.237 0 0 1 0-2.474h3.711a.618.618 0 0 0 .124-1.224l-6.186-1.241a.628.628 0 0 0-.3.015l-5.946 1.828a1.3 1.3 0 0 1-.857-2.462zm-1.985.609a2.511 2.511 0 0 0-.049 1.025 2.477 2.477 0 0 0 1.6 1.95 1.855 1.855 0 0 1-.221.075 2.033 2.033 0 0 1-.408.043.618.618 0 0 0-.618.618v3.1a.618.618 0 0 0 .618.618 1.832 1.832 0 0 1 1.849 1.849.618.618 0 0 0 .618.618h5.572V18.7h-9.894V7.566zm-.933 14.842h9.895v1.237h-9.9zm11.132 1.237v-1.237h3.711v1.237zm13.606 0h-8.659v-1.237h8.658zM40.922 11.9h-3.711V3.237h3.711z" class="prefix__cls-2" data-name="Path 2682" transform="translate(-5.053 -2)"/>
            <path id="prefix__Rectangle_535" d="M0 0h1v1H0z" class="prefix__cls-2" data-name="Rectangle 535" transform="translate(2.489 21.488)"/>
            <path id="prefix__Rectangle_536" d="M0 0h1v1H0z" class="prefix__cls-2" data-name="Rectangle 536" transform="translate(2.489 18.488)"/>
            <path id="prefix__Rectangle_537" d="M0 0h1v3H0z" class="prefix__cls-2" data-name="Rectangle 537" transform="translate(2.489 14.488)"/>
        </g>
    </g>
</svg>
