<svg id="loyalty-24px" xmlns="http://www.w3.org/2000/svg" width="17.996" height="17.996" viewBox="0 0 17.996 17.996">
  <path id="Path_103052" data-name="Path 103052" d="M18,0H0V18H18Z" fill="none"/>
  <path id="secure" d="M25.208,2.052a.479.479,0,0,0-.346-.4L18.97.018a.479.479,0,0,0-.257,0L12.82,1.657a.479.479,0,0,0-.346.4C12.44,2.3,11.66,8.1,13.66,10.993a9.407,9.407,0,0,0,5.068,3.654.481.481,0,0,0,.225,0,9.407,9.407,0,0,0,5.068-3.654C26.022,8.1,25.242,2.3,25.208,2.052Zm-2.567,3.39L18.622,9.461a.479.479,0,0,1-.678,0L15.459,6.976a.479.479,0,0,1,0-.678l.493-.493a.479.479,0,0,1,.678,0l1.653,1.653L21.47,4.271a.479.479,0,0,1,.678,0l.493.493A.479.479,0,0,1,22.641,5.442Z" transform="translate(-9.843 1.419)" fill="#303cd1"/>
</svg>
