<svg xmlns="http://www.w3.org/2000/svg" width="52.661" height="52.661" viewBox="0 0 52.661 52.661">
    <g id="prefix__numbers_of_years-01" data-name="numbers of years-01" transform="translate(.5 .5)">
        <path id="prefix__Path_2743" fill="#0f56af" d="M29.511 24.276a.334.334 0 0 0-.211-.076h-1.565a2.964 2.964 0 0 0-.577-1.315h2.122a.265.265 0 0 0 .208-.081.277.277 0 0 0 .081-.208v-.934a.277.277 0 0 0-.081-.208.265.265 0 0 0-.208-.081h-7.587a.277.277 0 0 0-.288.288v1.211a.277.277 0 0 0 .081.208.288.288 0 0 0 .208.092h1.326c1.28 0 2.1.346 2.445 1.026h-3.772a.334.334 0 0 0-.208.081.277.277 0 0 0-.081.208v.934a.242.242 0 0 0 .081.208.277.277 0 0 0 .208.081h3.863a1.776 1.776 0 0 1-.934 1.153 4.105 4.105 0 0 1-1.937.392h-1.027a.288.288 0 0 0-.208.092.277.277 0 0 0-.081.208V28.7a.242.242 0 0 0 .081.2c1.153 1.245 2.675 2.975 4.543 5.212a.277.277 0 0 0 .231.1H28a.254.254 0 0 0 .265-.161.265.265 0 0 0 0-.311c-1.776-2.168-3.171-3.805-4.186-4.889a4.543 4.543 0 0 0 2.514-.992 3.379 3.379 0 0 0 1.153-2.133h1.534a.277.277 0 0 0 .208-.081.242.242 0 0 0 .081-.208v-.934a.277.277 0 0 0-.081-.208zm0 0" data-name="Path 2743" transform="translate(.24 .275)"/>
        <path id="prefix__Path_2744" fill="none" stroke="#157bfb" stroke-linecap="round" stroke-linejoin="round" d="M28.426 2.6a25.831 25.831 0 1 0 18.287 7.553A25.831 25.831 0 0 0 28.426 2.6z" data-name="Path 2744" transform="translate(-2.63 -2.6)"/>
        <path id="prefix__Path_2745" fill="#157bfb" d="M41.787 30.66A15.049 15.049 0 0 1 27 43.345a14.657 14.657 0 0 1-2.3-.185 15.02 15.02 0 0 1 2.929-29.855l-2.5-2.387L26.761 9.2l3.84 3.655 1.718 1.637-1.637 1.741L27 20.074l-1.718-1.637L27.591 16a12.339 12.339 0 1 0 6.919 2.572l1.649-2.11a15.06 15.06 0 0 1 5.627 14.2z" data-name="Path 2745" transform="translate(-1.207 -1.589)"/>
    </g>
</svg>
