<svg xmlns="http://www.w3.org/2000/svg" width="136.953" height="35.416" viewBox="0 0 136.953 35.416"><g transform="translate(0.01)"><path d="M126.876,127.546H2.15L5.161,116.3H129.89Z" transform="translate(-1.711 -92.13)" fill="#253858"/><g transform="translate(-0.01)"><path d="M-.008,32.547c.335,0,.667.01,1,.01.779,0,1.559,0,2.338,0,.139,0,.181.039.179.179-.008.482,0,.966,0,1.449v.2a.443.443,0,0,1,.046.021c.035-.048.075-.094.108-.145a4.1,4.1,0,0,1,2.114-1.729,3.269,3.269,0,0,1,4.306,2.13,7.526,7.526,0,0,1,.4,3.194,6.835,6.835,0,0,1-.842,3.026,3.507,3.507,0,0,1-3.558,1.86,3.765,3.765,0,0,1-2.3-1.091,2.479,2.479,0,0,1-.2-.239c-.021.012-.039.023-.06.033v4.741H1.744c0-.048-.012-.1-.012-.141q.006-5.614.008-11.231a5.261,5.261,0,0,0-.067-.848.85.85,0,0,0-.786-.79,5.653,5.653,0,0,0-.7-.079c-.123-.008-.16-.052-.162-.168a2.745,2.745,0,0,0-.037-.343v-.037Zm3.516,5.31c0,.9,0,1.794.006,2.691a.363.363,0,0,0,.127.258,4.817,4.817,0,0,0,2.23.983A1.985,1.985,0,0,0,7.6,41.285a2.84,2.84,0,0,0,.746-1.345,8.507,8.507,0,0,0,.133-3.834,4.554,4.554,0,0,0-.721-1.848,1.8,1.8,0,0,0-2.116-.779A3.842,3.842,0,0,0,3.56,35a.41.41,0,0,0-.05.227c0,.879,0,1.756,0,2.635Z" transform="translate(0.01 -25.61)" fill="#0065ff"/><path d="M250.69,11.979V11.43H254.2v6.393c.245-.3.455-.584.7-.838a3.76,3.76,0,0,1,3.936-1.062,3.29,3.29,0,0,1,2.018,1.825,5.787,5.787,0,0,1,.586,2.3,7.866,7.866,0,0,1-.472,3.5,4.259,4.259,0,0,1-1.8,2.2,4,4,0,0,1-4.551-.474c-.121-.106-.231-.222-.353-.328a.219.219,0,0,0-.141-.058c-.021,0-.05.077-.058.121-.064.326-.123.657-.191.981-.01.05-.069.129-.108.131-.457.008-.912.006-1.395.006v-.216q0-6.082,0-12.16a11.411,11.411,0,0,0-.087-1.16.452.452,0,0,0-.387-.42c-.333-.064-.667-.112-1-.164-.066-.01-.133-.012-.208-.021Zm3.519,9.34q0,1.347,0,2.691a.282.282,0,0,0,.081.2,5.018,5.018,0,0,0,2.178.979,2.252,2.252,0,0,0,2.723-1.575,6.434,6.434,0,0,0,.33-2,9.4,9.4,0,0,0-.254-2.758,2.825,2.825,0,0,0-.788-1.424,2.212,2.212,0,0,0-2.018-.453,3.7,3.7,0,0,0-2.12,1.34.531.531,0,0,0-.137.382c.006.873,0,1.746,0,2.617Z" transform="translate(-198.587 -9.055)" fill="#253858"/><path d="M314.154,41.844c.006.067.01.135.017.2.037.478.042.493-.434.586a3.559,3.559,0,0,1-.862.081,1.558,1.558,0,0,1-1.419-1.172c-.046-.127-.079-.26-.125-.409-.2.172-.38.343-.574.5a4.665,4.665,0,0,1-2.1,1.047,3,3,0,0,1-3.192-1.413,2.925,2.925,0,0,1,1.133-3.924,5.291,5.291,0,0,1,2.166-.655c.638-.067,1.28-.079,1.922-.112.073,0,.145,0,.241,0a8.767,8.767,0,0,0-.181-2.484,1.523,1.523,0,0,0-1.607-1.133,3.619,3.619,0,0,0-.921.156,1.489,1.489,0,0,0-1.077,1.424c-.01.123-.017.243-.025.376H305.88v-.233c0-.482,0-.966,0-1.449a.232.232,0,0,1,.1-.183,8.423,8.423,0,0,1,3.978-.786,3.489,3.489,0,0,1,1.555.439,2.388,2.388,0,0,1,1.158,1.827,6.777,6.777,0,0,1,.064.941c.006,1.436-.006,2.87.008,4.306a8.735,8.735,0,0,0,.127,1.415.758.758,0,0,0,.74.707,3.142,3.142,0,0,0,.542-.056Zm-3.23-4.716a5.611,5.611,0,0,0-2.484.393,2.211,2.211,0,0,0-1.382,2.278,1.95,1.95,0,0,0,2.234,1.837A4.1,4.1,0,0,0,310.8,41a.243.243,0,0,0,.127-.239c0-1.1,0-2.2,0-3.3v-.33Z" transform="translate(-241.707 -25.544)" fill="#253858"/><path d="M453.724,34.942h-1.218a1.278,1.278,0,0,1-.015-.145c0-.513,0-1.027,0-1.54a.232.232,0,0,1,.1-.183,8.244,8.244,0,0,1,3.978-.777,4.52,4.52,0,0,1,1.1.231,2.361,2.361,0,0,1,1.611,2.055,5.15,5.15,0,0,1,.044.738c0,1.523-.006,3.045.008,4.568a6.838,6.838,0,0,0,.131,1.286.82.82,0,0,0,1.126.715c.048-.01.1-.019.164-.031.019.2.039.4.05.59a.135.135,0,0,1-.075.1,2.828,2.828,0,0,1-1.513.154,1.543,1.543,0,0,1-1.114-1.02c-.067-.164-.114-.339-.177-.528-.187.164-.366.33-.555.484a4.375,4.375,0,0,1-2.116,1.056,2.944,2.944,0,0,1-3.074-1.22,2.9,2.9,0,0,1,1.077-4.148,5.362,5.362,0,0,1,2.1-.619c.65-.064,1.305-.079,1.96-.112.054,0,.108,0,.154,0,.017-.025.029-.035.029-.044-.012-.642.008-1.289-.05-1.927a1.683,1.683,0,0,0-.9-1.482,2.059,2.059,0,0,0-1.623-.05c-.929.324-1.139.786-1.205,1.723,0,.035,0,.073,0,.129Zm3.782,2.209a5.812,5.812,0,0,0-2.286.316,2.258,2.258,0,0,0-1.563,2.218,1.97,1.97,0,0,0,2.251,1.974,4.187,4.187,0,0,0,1.476-.619.258.258,0,0,0,.135-.256c0-1.143,0-2.288,0-3.431,0-.06-.006-.121-.008-.2Z" transform="translate(-357.832 -25.567)" fill="#253858"/><path d="M408.03,36.567a8.7,8.7,0,0,0-.183-2.492,1.559,1.559,0,0,0-1.6-1.124,2.529,2.529,0,0,0-1.193.283,1.434,1.434,0,0,0-.779,1.145c-.027.177-.037.353-.058.54h-1.2A.763.763,0,0,1,403,34.8c0-.526,0-1.052,0-1.577a.226.226,0,0,1,.108-.175,8.9,8.9,0,0,1,3.036-.779,5.391,5.391,0,0,1,1.729.139,2.456,2.456,0,0,1,1.922,2.288c.023.276.033.555.035.833.006,1.6,0,3.194.017,4.79a4.147,4.147,0,0,0,.108.844.825.825,0,0,0,1.083.719c.06-.01.121-.025.216-.044.019.224.037.441.058.667a2.6,2.6,0,0,1-1.835.1,1.888,1.888,0,0,1-1.041-1.463c-.285.237-.551.476-.833.69a4.081,4.081,0,0,1-2.184.89,2.855,2.855,0,0,1-3.14-2.282,2.917,2.917,0,0,1,1.746-3.267,6.258,6.258,0,0,1,2.149-.524c.559-.048,1.122-.05,1.683-.075.048,0,.1-.006.164-.01Zm0,.565a5.7,5.7,0,0,0-2.413.366,2.235,2.235,0,0,0-1.451,2.2,1.96,1.96,0,0,0,2.249,1.939,4.043,4.043,0,0,0,1.461-.611.285.285,0,0,0,.158-.278c-.006-1.139,0-2.278,0-3.417Z" transform="translate(-318.639 -25.55)" fill="#253858"/><path d="M59.316,42.751a4.556,4.556,0,0,1-4.657-3.8,5.908,5.908,0,0,1,.746-4.576,4.288,4.288,0,0,1,3.325-2,4.794,4.794,0,0,1,3.02.594A4.638,4.638,0,0,1,63.9,35.951a5.924,5.924,0,0,1-.582,4.6,4.277,4.277,0,0,1-3.3,2.168c-.067.008-.135.025-.2.027-.166,0-.335,0-.5,0Zm2.924-5.4c-.027-.251-.054-.7-.125-1.147a5.143,5.143,0,0,0-.971-2.411,2.222,2.222,0,0,0-3.2-.472,3.352,3.352,0,0,0-1.037,1.444,7.6,7.6,0,0,0-.357,4.421,4.77,4.77,0,0,0,1.027,2.249,2.229,2.229,0,0,0,2.914.472,3.089,3.089,0,0,0,1.062-1.237,7.307,7.307,0,0,0,.686-3.317Z" transform="translate(-43.169 -25.615)" fill="#0065ff"/><path d="M358.5,42.706h6.557v.678h-8.733a1.228,1.228,0,0,1,.179-.838q3.064-4.233,6.1-8.488l.087-.129h-.227q-1.883,0-3.768,0c-.251,0-.5.037-.757.056a.329.329,0,0,0-.322.3,4.453,4.453,0,0,0-.044.553c-.006.227,0,.455,0,.692h-.983V33.37h8.213a1.12,1.12,0,0,1-.2.85c-2.008,2.77-4,5.555-5.992,8.336l-.112.15Z" transform="translate(-282.269 -26.435)" fill="#253858"/><path d="M498.543,33.053v-.509h3.519v1.814a3.69,3.69,0,0,1,3.891-1.981v2.756h-.993c-.035-.274-.062-.555-.11-.831-.079-.445-.15-.5-.6-.493a2.428,2.428,0,0,0-1.91,1.054,1.227,1.227,0,0,0-.279.829c.017,1.484,0,2.97.01,4.454,0,.37.037.74.069,1.108a.614.614,0,0,0,.557.617c.322.048.648.077.973.11.108.012.218.012.335.019v.557h-5.464a4.053,4.053,0,0,1,.008-.478c0-.037.1-.087.156-.1.305-.046.613-.073.917-.121a.61.61,0,0,0,.572-.6c.027-.345.064-.69.066-1.035q.009-2.681,0-5.364a11.088,11.088,0,0,0-.087-1.143.479.479,0,0,0-.405-.449c-.4-.079-.8-.143-1.216-.218Z" transform="translate(-394.924 -25.604)" fill="#253858"/><path d="M100.132,11.955v-.49c.071,0,.131-.01.191-.01,1.02,0,2.041,0,3.061,0,.181,0,.212.062.212.224,0,2.232.01,4.466.017,6.7q.009,3.675.021,7.349c0,.274,0,.274-.272.274h-1.65c0-.073-.01-.133-.01-.191.008-1.349.012-2.7.025-4.046.008-.964.029-1.929.039-2.9.021-1.806.042-3.612.052-5.416a3.406,3.406,0,0,0-.077-.68.8.8,0,0,0-.648-.661c-.312-.067-.632-.1-.962-.152Z" transform="translate(-79.318 -9.07)" fill="#0065ff"/><path d="M204.711,33.42c-.2.384-.409.742-.582,1.116q-1.5,3.267-2.976,6.54c-.719,1.586-1.432,3.174-2.159,4.757a1.71,1.71,0,0,1-1.328,1.143,5.643,5.643,0,0,1-.8.042c-.526,0-1.052-.019-1.577-.033-.11,0-.22-.017-.326-.027-.069-.289-.048-.324.22-.316.345.01.692.029,1.037.052a3.144,3.144,0,0,0,1.623-.287,1.407,1.407,0,0,0,.715-.7c.2-.47.374-.952.561-1.428.091-.235.173-.476.283-.7a.359.359,0,0,0,0-.328q-1.562-3.732-3.117-7.467c-.135-.324-.258-.657-.407-.973a1.372,1.372,0,0,0-1.141-.865c-.037,0-.071-.075-.1-.114-.006-.008,0-.025,0-.037.006-.459-.056-.372.366-.374.848-.006,1.7,0,2.544,0h.231c0,.227.012.434,0,.642a2.474,2.474,0,0,0,.229,1.151q1.222,2.912,2.436,5.825c.023.054.05.108.085.185a.9.9,0,0,0,.075-.1c.829-1.875,1.671-3.743,2.479-5.626.264-.617.441-1.27.648-1.91a.2.2,0,0,1,.237-.164c.245.01.49,0,.75,0Z" transform="translate(-154.184 -26.47)" fill="#0065ff"/><path d="M160.279,41.517c0,.222.006.42,0,.617a.2.2,0,0,1-.094.148,6.47,6.47,0,0,1-4.227.308,4.439,4.439,0,0,1-2.987-2.893,5.8,5.8,0,0,1,.482-5.3,4.242,4.242,0,0,1,3.313-1.985,10.371,10.371,0,0,1,3.39.376c.1.023.125.075.125.17,0,.686,0,1.374,0,2.06,0,.121-.044.164-.164.16-.247-.006-.495-.01-.742,0-.143.006-.187-.039-.2-.187a4.374,4.374,0,0,0-.123-.8,1.6,1.6,0,0,0-1.87-1.253,2.554,2.554,0,0,0-2.218,1.588,5.549,5.549,0,0,0-.526,2.03,7.525,7.525,0,0,0,.343,3.053,3.155,3.155,0,0,0,2.54,2.3,5.014,5.014,0,0,0,2.727-.3c.069-.025.137-.052.231-.087Z" transform="translate(-120.842 -25.652)" fill="#0065ff"/><path d="M128.72,34.007V33.5h3.458c.029,3.315.058,6.623.087,9.949h-1.914V43q.019-2.126.042-4.25c.01-1.064.023-2.128.025-3.192a3.748,3.748,0,0,0-.062-.663.87.87,0,0,0-.8-.792c-.133-.025-.268-.044-.4-.06s-.27-.021-.426-.033Z" transform="translate(-101.966 -26.538)" fill="#0065ff"/><path d="M138.732,15.99v1.733H136.99V15.99Z" transform="translate(-108.518 -12.667)" fill="#0065ff"/><path d="M567.819,14.15A10.93,10.93,0,1,1,556.89,3.22,10.93,10.93,0,0,1,567.819,14.15Z" transform="translate(-432.492 -2.551)" fill="#0065ff"/><g transform="translate(117.009 7.253)"><path d="M566.455,59.626l.74-.2a1.97,1.97,0,0,1-.12,1.38,1.854,1.854,0,0,1-1,.89,1.965,1.965,0,0,1-1.623.008,2.479,2.479,0,0,1-1.193-1.4A3.172,3.172,0,0,1,563,59.015a1.712,1.712,0,0,1,.372-1.052,2.192,2.192,0,0,1,.9-.669,1.882,1.882,0,0,1,1.266-.114,1.719,1.719,0,0,1,.964.754l-.651.393a1.25,1.25,0,0,0-.615-.495.971.971,0,0,0-.7.037,1.2,1.2,0,0,0-.717.748,2,2,0,0,0,.166,1.363,2.051,2.051,0,0,0,.833,1.1,1.15,1.15,0,0,0,1.008.035,1.09,1.09,0,0,0,.6-.547,1.4,1.4,0,0,0,.031-.941Z" transform="translate(-562.996 -52.5)" fill="#fff"/><path d="M582.578,52.219a2.346,2.346,0,0,1-.062-2,2.121,2.121,0,0,1,1.133-1.014,2.039,2.039,0,0,1,1.654-.015,2.348,2.348,0,0,1,1.2,1.347,3.016,3.016,0,0,1,.283,1.38,1.876,1.876,0,0,1-.411,1.016,2.241,2.241,0,0,1-.912.678,2.043,2.043,0,0,1-1.663.021,2.45,2.45,0,0,1-1.218-1.409Zm.734-.3a1.937,1.937,0,0,0,.852,1.066,1.232,1.232,0,0,0,1.054.037,1.215,1.215,0,0,0,.717-.769,1.983,1.983,0,0,0-.156-1.38,1.876,1.876,0,0,0-.844-1.037,1.271,1.271,0,0,0-1.771.727,1.933,1.933,0,0,0,.145,1.355Z" transform="translate(-578.305 -46.086)" fill="#fff"/><path d="M604.135,41.169,602.4,36.956l.638-.264.243.59a1.627,1.627,0,0,1,.322-.715,1.59,1.59,0,0,1,.671-.5,1.511,1.511,0,0,1,.848-.123,1.126,1.126,0,0,1,.646.37,1.637,1.637,0,0,1,1-1.274,1.385,1.385,0,0,1,1.108-.05,1.6,1.6,0,0,1,.777.931l1.191,2.893-.711.293-1.093-2.654a2.094,2.094,0,0,0-.324-.588.653.653,0,0,0-.376-.2.838.838,0,0,0-.476.062,1.087,1.087,0,0,0-.617.6,1.405,1.405,0,0,0,.1,1.066l1.008,2.448-.715.293L605.507,37.4a1.3,1.3,0,0,0-.468-.642.713.713,0,0,0-.669,0,1.118,1.118,0,0,0-.493.389.97.97,0,0,0-.179.617,2.81,2.81,0,0,0,.247.929l.9,2.186-.715.293Z" transform="translate(-594.211 -34.901)" fill="#fff"/></g><g transform="translate(133.598)"><path d="M648.12,3.539a2.617,2.617,0,0,1,.472-.039.782.782,0,0,1,.553.156.479.479,0,0,1,.15.362.5.5,0,0,1-.36.486v.008a.478.478,0,0,1,.281.384,3.02,3.02,0,0,0,.148.524h-.256a2.525,2.525,0,0,1-.127-.455c-.056-.264-.158-.362-.382-.37h-.233v.827h-.245Zm.245.869h.251c.264,0,.43-.143.43-.362,0-.245-.179-.353-.438-.357a.951.951,0,0,0-.243.023Z" transform="translate(-647.018 -2.773)"/><path d="M644.5,3.354a1.677,1.677,0,1,1,1.677-1.677A1.679,1.679,0,0,1,644.5,3.354Zm0-3.144a1.467,1.467,0,1,0,1.467,1.467A1.47,1.47,0,0,0,644.5.21Z" transform="translate(-642.82)"/></g></g><g transform="translate(6.63 26.731)"><path d="M33.3,129.09h1.272l-.536,2.288h2.344l.538-2.288h1.272l-1.357,5.78H35.556l.545-2.321H33.756l-.545,2.321H31.94l1.357-5.78Z" transform="translate(-31.94 -128.992)" fill="#fff"/><path d="M62.427,128.89H63.6l1.11,5.821h-1.33l-.224-1.3H60.71l-.833,1.3h-1.3l3.845-5.821Zm.538,3.4-.328-1.875-1.207,1.875Z" transform="translate(-53.043 -128.834)" fill="#fff"/><path d="M92.559,129.09H95.2a1.832,1.832,0,0,1,1.546.586A1.516,1.516,0,0,1,96.932,131l0,.017a2.308,2.308,0,0,1-.611,1.143,2.712,2.712,0,0,1-1.047.648l.927,2.064H94.71l-.8-1.85h-1l-.434,1.85H91.2l1.357-5.78Zm1.9,2.808a1.287,1.287,0,0,0,.775-.222,1,1,0,0,0,.391-.594l0-.017a.613.613,0,0,0-.118-.619.967.967,0,0,0-.686-.206H93.561L93.17,131.9h1.289Z" transform="translate(-78.884 -128.992)" fill="#fff"/><path d="M130.9,129.09h4.4l-.27,1.147H131.9l-.293,1.247h2.758l-.27,1.147h-2.758l-.526,2.238H129.54l1.357-5.78Z" transform="translate(-109.256 -128.992)" fill="#fff"/><path d="M155.917,128.89h1.172l1.11,5.821h-1.33l-.224-1.3H154.2l-.833,1.3h-1.3l3.845-5.821Zm.538,3.4-.328-1.875-1.207,1.875Z" transform="translate(-127.104 -128.834)" fill="#fff"/><path d="M186.065,129.09h1.372l.946,2.444,2.093-2.444h1.372l-1.357,5.78h-1.255l.887-3.774-2.207,2.469h-.033l-1.035-2.444-.881,3.749H184.71l1.357-5.78Z" transform="translate(-152.96 -128.992)" fill="#fff"/><path d="M219.667,129.09h1.272l-1.357,5.78H218.31Z" transform="translate(-179.577 -128.992)" fill="#fff"/><path d="M231.579,129.09h1.272l-1.089,4.633h2.883l-.27,1.147H230.22l1.357-5.78Z" transform="translate(-189.012 -128.992)" fill="#fff"/><path d="M258.749,132.592l-1.4-3.5h1.486l.833,2.319,1.949-2.319h1.444l-3.038,3.477-.54,2.3h-1.272Z" transform="translate(-210.503 -128.992)" fill="#fff"/><path d="M293.105,129.09h1.272l-.536,2.288h2.344l.538-2.288H298l-1.357,5.78h-1.272l.545-2.321h-2.344l-.544,2.321H291.75l1.357-5.78Z" transform="translate(-237.754 -128.992)" fill="#fff"/><path d="M324.825,134.6a2.766,2.766,0,0,1-1.174-.235,2.19,2.19,0,0,1-.821-.636,2.143,2.143,0,0,1-.416-.941,2.8,2.8,0,0,1,.046-1.16l0-.017a3.55,3.55,0,0,1,.5-1.16,4.212,4.212,0,0,1,.862-.95,4.081,4.081,0,0,1,1.126-.644,3.631,3.631,0,0,1,1.291-.235,2.766,2.766,0,0,1,1.174.235,2.212,2.212,0,0,1,.821.636,2.144,2.144,0,0,1,.416.941,2.8,2.8,0,0,1-.046,1.16l0,.017a3.6,3.6,0,0,1-.5,1.16,4.168,4.168,0,0,1-.862.95,4.081,4.081,0,0,1-1.126.644A3.631,3.631,0,0,1,324.825,134.6Zm.291-1.172a1.988,1.988,0,0,0,.736-.141,2.165,2.165,0,0,0,.64-.389,2.507,2.507,0,0,0,.49-.574,2.284,2.284,0,0,0,.291-.7l0-.017a1.849,1.849,0,0,0,.037-.7,1.329,1.329,0,0,0-.227-.578,1.266,1.266,0,0,0-.466-.393,1.48,1.48,0,0,0-.667-.145,1.967,1.967,0,0,0-.74.141,2.2,2.2,0,0,0-.636.389,2.552,2.552,0,0,0-.49.574,2.263,2.263,0,0,0-.291.7l0,.017a1.85,1.85,0,0,0-.037.7,1.306,1.306,0,0,0,.229.578,1.287,1.287,0,0,0,.461.393,1.473,1.473,0,0,0,.671.145Z" transform="translate(-262.013 -128.62)" fill="#fff"/><path d="M357.4,134.6a2.928,2.928,0,0,1-1.183-.222,2.055,2.055,0,0,1-.813-.619,2.1,2.1,0,0,1-.4-.941,3,3,0,0,1,.056-1.189l0-.017a3.633,3.633,0,0,1,.5-1.16,4.227,4.227,0,0,1,.854-.95,4.049,4.049,0,0,1,1.11-.644,3.511,3.511,0,0,1,1.27-.235,3.874,3.874,0,0,1,.694.054,2.764,2.764,0,0,1,.555.154,2.02,2.02,0,0,1,.453.247,2.67,2.67,0,0,1,.382.339l-1.029.966a2.14,2.14,0,0,0-.272-.247,1.7,1.7,0,0,0-.3-.183,1.718,1.718,0,0,0-.357-.116,2.2,2.2,0,0,0-.445-.042,1.683,1.683,0,0,0-.682.145,2.386,2.386,0,0,0-.619.389,2.444,2.444,0,0,0-.488.572,2.342,2.342,0,0,0-.293.7l0,.017a1.941,1.941,0,0,0-.044.732,1.319,1.319,0,0,0,.227.584,1.181,1.181,0,0,0,.463.384,1.546,1.546,0,0,0,.673.137,2.4,2.4,0,0,0,1.28-.349l.2-.831h-1.28l.258-1.1h2.511l-.59,2.511a5.7,5.7,0,0,1-1.214.648,3.974,3.974,0,0,1-1.471.268Z" transform="translate(-287.833 -128.62)" fill="#fff"/><path d="M385.037,129.09h1.272l-1.357,5.78H383.68Z" transform="translate(-310.578 -128.992)" fill="#fff"/><path d="M410.387,129.09h1.272l-1.357,5.78H409.03Z" transform="translate(-330.66 -128.992)" fill="#fff"/><path d="M422.307,129.09h1.172l1.873,3.558.835-3.558h1.255l-1.357,5.78H425l-1.935-3.674-.862,3.674H420.95Z" transform="translate(-340.103 -128.992)" fill="#fff"/><path d="M452.5,134.636a3.384,3.384,0,0,1-1.243-.227,2.494,2.494,0,0,1-.991-.7l.962-.9a2.759,2.759,0,0,0,.692.511,1.884,1.884,0,0,0,.869.189,1.28,1.28,0,0,0,.648-.145.61.61,0,0,0,.312-.4l0-.017a.49.49,0,0,0,.006-.218.334.334,0,0,0-.133-.177,1.384,1.384,0,0,0-.318-.164,5.289,5.289,0,0,0-.551-.172,5.827,5.827,0,0,1-.738-.239,1.656,1.656,0,0,1-.528-.326.963.963,0,0,1-.272-.482,1.577,1.577,0,0,1,.033-.719l0-.017a2.038,2.038,0,0,1,.316-.715,2.266,2.266,0,0,1,.542-.549,2.51,2.51,0,0,1,.721-.355,2.823,2.823,0,0,1,.846-.125,3.088,3.088,0,0,1,1.124.189,2.474,2.474,0,0,1,.85.545l-.885.958a3.121,3.121,0,0,0-.661-.418,1.688,1.688,0,0,0-.707-.152,1.047,1.047,0,0,0-.59.145.583.583,0,0,0-.27.36l0,.017a.484.484,0,0,0,0,.243.351.351,0,0,0,.152.187,1.415,1.415,0,0,0,.347.156c.15.048.343.108.576.173a4.787,4.787,0,0,1,.721.26,1.6,1.6,0,0,1,.5.347.982.982,0,0,1,.245.474,1.521,1.521,0,0,1-.033.653l0,.017a2.17,2.17,0,0,1-.9,1.326,2.559,2.559,0,0,1-.746.347,3.209,3.209,0,0,1-.885.121Z" transform="translate(-363.329 -128.675)" fill="#fff"/><path d="M479.294,134.953a2.028,2.028,0,0,1-1.681-.644,2.191,2.191,0,0,1-.216-1.924l.775-3.3h1.272l-.769,3.269a1.333,1.333,0,0,0,.079,1.068.935.935,0,0,0,.831.36,1.5,1.5,0,0,0,1-.347,1.879,1.879,0,0,0,.576-1.041l.777-3.311h1.272l-.767,3.261a4.039,4.039,0,0,1-.447,1.147,3.03,3.03,0,0,1-.7.813,2.758,2.758,0,0,1-.917.486,3.553,3.553,0,0,1-1.087.162Z" transform="translate(-384.73 -128.984)" fill="#fff"/><path d="M505.689,129.09h2.641a1.832,1.832,0,0,1,1.546.586,1.517,1.517,0,0,1,.185,1.322l0,.017a2.307,2.307,0,0,1-.611,1.143,2.711,2.711,0,0,1-1.047.648l.927,2.064H507.84l-.8-1.85h-1l-.434,1.85H504.33l1.357-5.78Zm1.9,2.808a1.286,1.286,0,0,0,.775-.222,1,1,0,0,0,.391-.594l0-.017a.613.613,0,0,0-.118-.619.967.967,0,0,0-.686-.206h-1.264L506.3,131.9h1.289Z" transform="translate(-406.154 -128.992)" fill="#fff"/><path d="M533.269,129.082h4.352l-.266,1.131h-3.1l-.276,1.172h2.725l-.266,1.131h-2.725l-.285,1.214h3.138l-.266,1.131H531.91l1.357-5.78Z" transform="translate(-428.002 -128.984)" fill="#fff"/><path d="M558.739,129.082h2.255a3.029,3.029,0,0,1,1.191.218,2.113,2.113,0,0,1,.831.607,2.011,2.011,0,0,1,.418.912,2.716,2.716,0,0,1-.044,1.135l0,.017a3.531,3.531,0,0,1-.49,1.139,3.745,3.745,0,0,1-.848.917,4.047,4.047,0,0,1-1.118.611,3.81,3.81,0,0,1-1.295.222H557.38l1.357-5.78Zm1.166,4.632a2.2,2.2,0,0,0,.74-.125,2.075,2.075,0,0,0,.632-.355,2.324,2.324,0,0,0,.482-.544,2.205,2.205,0,0,0,.293-.7l0-.017a1.819,1.819,0,0,0,.037-.7,1.254,1.254,0,0,0-.224-.553,1.143,1.143,0,0,0-.466-.36,1.687,1.687,0,0,0-.68-.127h-.983l-.819,3.485Z" transform="translate(-448.179 -128.984)" fill="#fff"/></g></g></svg>