<svg xmlns="http://www.w3.org/2000/svg" width="38.367" height="39.646" viewBox="0 0 38.367 39.646"><g transform="translate(-52.951 -497)"><g transform="translate(40.8 469.7)"><g transform="translate(12.2 27.3)"><path d="M50.518,30.1a1.027,1.027,0,0,0-1-1H45.91v-.8a1,1,0,0,0-2,0v.8H25.524v-.8a1,1,0,0,0-2,0v.8h-3.51a1,1,0,0,0-1,1V42.778A12.814,12.814,0,1,0,34.289,62.913a15.019,15.019,0,0,0,1.853-2.454H49.466a1,1,0,0,0,1-1V35.515Zm-29.5,1h2.5v.8a1,1,0,1,0,2,0v-.8H43.906v.8a1,1,0,1,0,2,0v-.8h2.6v3.456h-27.5Zm8.415,8.866v2.1a9.56,9.56,0,0,0-2.054-.551V39.973Zm3.156,0V42.12H30.533V39.973Zm3.156,0V42.12H33.688V39.973Zm3.206,0V42.12H36.894V39.973Zm3.156,0V42.12H40.05V39.973Zm3.156,0V42.12H43.205V39.973ZM40.05,55.3V53.146H42.1V55.3Zm-2.3,0a9.652,9.652,0,0,0,.05-1.2,6.062,6.062,0,0,0-.05-.952H38.9V55.3Zm7.513-6.562H43.205V46.584h2.054Zm-3.156,0H40.05V46.584H42.1Zm-3.156,0H36.894V46.584h2.054Zm-3.206-1.553c-.15-.2-.25-.4-.4-.6h.4ZM37.1,49.84H38.95v2.154h-1.3a16.993,16.993,0,0,0-.556-2.154Zm2.955,0H42.1v2.154H40.05Zm3.156,0h2.054v2.154H43.205Zm2.054-4.408H43.205V43.278h2.054Zm-3.156,0H40.05V43.278H42.1Zm-3.156,0H36.894V43.278h2.054Zm-3.206,0H34.389a4.641,4.641,0,0,0-.7-.7V43.278h2.054v2.154Zm-3.156-1.653a6.526,6.526,0,0,0-.751-.5h.751Zm10.619,9.367h2.054V55.3H43.205ZM26.225,41.375a10.06,10.06,0,0,0-1.252-.05,4.309,4.309,0,0,0-.8.05V40.023h2.054Zm-1.2,23.542A10.819,10.819,0,1,1,35.842,54.1,10.819,10.819,0,0,1,25.025,64.917ZM48.467,58.4H37.044a13.12,13.12,0,0,0,.551-2H45.81a.556.556,0,0,0,.551-.551V39.321a.556.556,0,0,0-.551-.551H23.62a.556.556,0,0,0-.551.551v2.054a13.659,13.659,0,0,0-2.054.5v-5.41h27.5Z" transform="translate(-12.2 -27.3)" fill="#157bfb"/></g></g><g transform="translate(41 508.7)"><g transform="translate(21.187 10.3)"><path d="M28.531,11.5H21.749a.55.55,0,1,1,0-1.1h6.782a.55.55,0,1,1,0,1.1Z" transform="translate(-21.198 -10.386)" fill="#0f56af" stroke="#0f56af" stroke-width="0.5"/><path d="M28.531,31.5H21.749a.55.55,0,1,1,0-1.1h6.782a.55.55,0,1,1,0,1.1Z" transform="translate(-21.198 -27.64)" fill="#0f56af" stroke="#0f56af" stroke-width="0.5"/><path d="M23.74,16.451H21.749a.55.55,0,1,1,0-1.1H23.74a1.977,1.977,0,0,0,0-3.954H21.749a.55.55,0,1,1,0-1.1H23.74a3.075,3.075,0,0,1,0,6.151Z" transform="translate(-21.198 -10.3)" fill="#0f56af" stroke="#0f56af" stroke-width="0.5"/><path d="M26.653,52.924a.59.59,0,0,1-.384-.151l-4.915-4.736a.555.555,0,0,1,.769-.8l4.915,4.723a.559.559,0,0,1,.014.783.618.618,0,0,1-.4.181Z" transform="translate(-21.187 -42.037)" fill="#0f56af" stroke="#0f56af" stroke-width="0.5"/></g></g></g></svg>