<svg id="emoji_events-24px" xmlns="http://www.w3.org/2000/svg" width="18" height="18" viewBox="0 0 18 18">
  <rect id="Rectangle_7346" data-name="Rectangle 7346" width="18" height="18" fill="none"/>
  <path id="Path_103051" data-name="Path 103051" d="M14.85,4.481H13.369V3.741A.743.743,0,0,0,12.628,3H6.7a.743.743,0,0,0-.741.741v.741H4.481A1.486,1.486,0,0,0,3,5.963V6.7a3.7,3.7,0,0,0,3.251,3.659,3.71,3.71,0,0,0,2.674,2.192v2.3H6.7a.743.743,0,0,0-.741.741h0a.743.743,0,0,0,.741.741h5.925a.743.743,0,0,0,.741-.741h0a.743.743,0,0,0-.741-.741H10.407v-2.3a3.71,3.71,0,0,0,2.674-2.192A3.7,3.7,0,0,0,16.332,6.7V5.963A1.486,1.486,0,0,0,14.85,4.481ZM4.481,6.7V5.963H5.963V8.792A2.23,2.23,0,0,1,4.481,6.7Zm10.369,0a2.23,2.23,0,0,1-1.481,2.089V5.963H14.85Z" transform="translate(-0.778 -0.778)" fill="#ffc400"/>
</svg>
