<svg xmlns="http://www.w3.org/2000/svg" width="18.883" height="20.178" viewBox="0 0 18.883 20.178">
    <defs>
        <style>
            .prefix__cls-1,.prefix__cls-2,.prefix__cls-4{fill:none;stroke-miterlimit:10}.prefix__cls-1,.prefix__cls-2{stroke:#157bfb}.prefix__cls-1{stroke-width:.8px}.prefix__cls-2{stroke-width:.5px}.prefix__cls-4{stroke-linecap:round;stroke:#0f56af}
        </style>
    </defs>
    <g id="prefix__tax_free" data-name="tax free" transform="translate(-11 -8.7)">
        <path id="prefix__Path_2716" d="M11.4 9.1h11.984v8.014A6.486 6.486 0 0 0 19.7 27.833h-8.3z" class="prefix__cls-1" data-name="Path 2716"/>
        <path id="prefix__Path_2717" d="M29.64 34.42a4.97 4.97 0 1 1 4.97-4.97 4.97 4.97 0 0 1-4.97 4.97z" class="prefix__cls-1" data-name="Path 2717" transform="translate(-5.127 -5.943)"/>
        <path id="prefix__Path_2718" d="M29.521 30.1a.773.773 0 0 0 .54-.227.756.756 0 0 0 0-1.08.764.764 0 0 0-1.3.54.749.749 0 0 0 .227.54.767.767 0 0 0 .533.227zm0 0" class="prefix__cls-2" data-name="Path 2718" transform="translate(-6.708 -7.523)"/>
        <path id="prefix__Path_2719" d="M35.069 34.11a.755.755 0 1 0 .54.221.767.767 0 0 0-.54-.221zm0 0" class="prefix__cls-2" data-name="Path 2719" transform="translate(-8.856 -9.664)"/>
        <path id="prefix__Line_14" fill="none" stroke="#157bfb" stroke-linecap="round" stroke-miterlimit="10" stroke-width="0.5px" d="M3.455 0L0 3.455" data-name="Line 14" transform="translate(22.789 21.783)"/>
        <path id="prefix__Line_15" d="M0 0L5.406 0" class="prefix__cls-4" data-name="Line 15" transform="translate(14.689 12.389)"/>
        <path id="prefix__Line_16" d="M0 0L5.406 0" class="prefix__cls-4" data-name="Line 16" transform="translate(14.689 16.439)"/>
        <path id="prefix__Line_17" d="M0 0L1.356 0" class="prefix__cls-4" data-name="Line 17" transform="translate(14.689 20.489)"/>
    </g>
</svg>
