<svg xmlns="http://www.w3.org/2000/svg" id="noun_Telephone_415471" width="32.279" height="32.279" viewBox="0 0 32.279 32.279">
    <defs>
        <style>
            .cls-1{fill:#7c7c7c}
        </style>
    </defs>
    <g id="Group_317" data-name="Group 317">
        <path id="Path_2399" d="M23.139 7a16.139 16.139 0 0 0 0 32.279.375.375 0 1 0 0-.751 15.389 15.389 0 1 1 15.389-15.389 14.423 14.423 0 0 1-6.486 12.374 4.284 4.284 0 0 1-3.929-2.8 14.391 14.391 0 0 0 1.525-.786v-.012a3.2 3.2 0 0 0 1.1-1.056 1.447 1.447 0 0 0 .129-1.49 17.663 17.663 0 0 0-2.663-3.284 1.442 1.442 0 0 0-1.478-.176 7.8 7.8 0 0 0-1.149.575c-.389.212-.7.414-.938.528a.819.819 0 0 1-.528.117 1.269 1.269 0 0 1-.61-.457 10.08 10.08 0 0 1-1.032-1.537l-1.22-2.123a10.225 10.225 0 0 1-.821-1.654 1.22 1.22 0 0 1-.082-.751.813.813 0 0 1 .364-.4c.22-.153.548-.332.927-.563a7.49 7.49 0 0 0 1.067-.692 1.457 1.457 0 0 0 .6-1.372 17.615 17.615 0 0 0-1.513-3.941 1.477 1.477 0 0 0-1.372-.633 3.137 3.137 0 0 0-1.454.411c-2.137 1.233-3.438 2.506-3.671 4.269s.567 3.874 2.3 6.873l1.706 2.979c1.732 3 3.165 4.739 4.809 5.419a4.586 4.586 0 0 0 3.308.012 5.078 5.078 0 0 0 4.727 3.308.378.378 0 0 0 .211-.059 15.233 15.233 0 0 0 6.92-13.078A16.145 16.145 0 0 0 23.139 7zM27.4 32.171a3.918 3.918 0 0 1-2.991.094c-1.358-.562-2.741-2.151-4.445-5.1l-1.724-2.979c-1.7-2.951-2.386-4.947-2.193-6.4s1.23-2.519 3.284-3.706h.012a2.572 2.572 0 0 1 1.1-.317c.362-.009.59.081.692.258a19.015 19.015 0 0 1 1.431 3.718c.047.228-.064.41-.34.645a8.044 8.044 0 0 1-.985.633c-.355.217-.669.38-.95.575a1.583 1.583 0 0 0-.657.786 1.924 1.924 0 0 0 .094 1.22 10.482 10.482 0 0 0 .856 1.759q.005.018.012.035l1.232 2.123a10.757 10.757 0 0 0 1.114 1.666 1.9 1.9 0 0 0 1.009.68 1.578 1.578 0 0 0 1.009-.164c.309-.146.62-.34.985-.54a7.956 7.956 0 0 1 1.032-.54c.342-.122.565-.131.739.023a19.111 19.111 0 0 1 2.5 3.108c.1.177.071.418-.117.727a2.551 2.551 0 0 1-.833.8 13.283 13.283 0 0 1-1.63.821" class="cls-1" data-name="Path 2399" transform="translate(-7 -7)"/>
    </g>
</svg>
