<svg xmlns="http://www.w3.org/2000/svg" width="46.425" height="47.321" viewBox="0 0 46.425 47.321"><g transform="translate(-1350.383 -413.679)"><g transform="translate(1351.108 414.279)"><path d="M43.9,13.8a1.845,1.845,0,0,1-1.2-.5l-11-11a1.845,1.845,0,0,1-.5-1.2A1.685,1.685,0,0,1,32.9-.6H44a1.71,1.71,0,0,1,1.7,1.8V12.1a1.656,1.656,0,0,1-.5,1.2A2.106,2.106,0,0,1,43.9,13.8ZM33,.7a.43.43,0,0,0-.4.4.367.367,0,0,0,.1.3l11,11c.2.2.5.2.6,0a.367.367,0,0,0,.1-.3V1.1c0-.1,0-.3-.1-.3A.367.367,0,0,0,44,.7v0Z" fill="#157bfb"/><path d="M0,28.1c-.2,0-.3-.1-.5-.2a.561.561,0,0,1,0-.9l22-21.9a.561.561,0,0,1,.9,0l8.3,8.3,6.5-6.5a.561.561,0,0,1,.9,0,.561.561,0,0,1,0,.9l-7,7a.561.561,0,0,1-.9,0L21.9,6.5.5,27.9A.551.551,0,0,1,0,28.1Z" fill="#157bfb"/></g><g transform="translate(1358 442)"><rect width="6" height="19" fill="none"/><path d="M6,19H0V0H6ZM.7,18.3H5.3V.7H.7Z" fill="#0f56af"/></g><g transform="translate(1368 432)"><rect width="6" height="29" fill="none"/><path d="M6,29H0V0H6ZM.7,28.3H5.3V.7H.7Z" fill="#0f56af"/></g><g transform="translate(1378 435)"><rect width="6" height="26" fill="none"/><path d="M6,26H0V0H6ZM.7,25.3H5.3V.7H.7Z" fill="#0f56af"/></g><g transform="translate(1388 433)"><rect width="6" height="28" fill="none"/><path d="M6,28H0V0H6ZM.7,27.3H5.3V.7H.7Z" fill="#0f56af"/></g></g></svg>