<svg xmlns="http://www.w3.org/2000/svg" xmlns:xlink="http://www.w3.org/1999/xlink" width="27" height="27" viewBox="0 0 27 27"><defs><pattern id="a" preserveAspectRatio="none" width="100%" height="100%" viewBox="0 0 496 497"><image width="496" height="497" xlink:href="whatsapp-icon-image.png"/></pattern><pattern id="b" preserveAspectRatio="none" width="100%" height="100%" viewBox="0 0 438 440"><image width="438" height="440" xlink:href="whatsapp-icon-image2.png"/></pattern><linearGradient id="c" x1="0.5" y1="1" x2="0.5" gradientUnits="objectBoundingBox"><stop offset="0" stop-color="#20b038"/><stop offset="1" stop-color="#60d66a"/></linearGradient><pattern id="d" preserveAspectRatio="none" width="100%" height="100%" viewBox="0 0 444 446"><image width="444" height="446" xlink:href="whatsapp-icon-image3.png"/></pattern><linearGradient id="e" x1="0.5" y1="1" x2="0.5" gradientUnits="objectBoundingBox"><stop offset="0" stop-color="#f9f9f9"/><stop offset="1" stop-color="#fff"/></linearGradient><pattern id="f" preserveAspectRatio="none" width="100%" height="100%" viewBox="0 0 237 222"><image width="237" height="222" xlink:href="whatsapp-icon-image4.png"/></pattern></defs><g transform="translate(-392.748 -292.124)"><g transform="translate(392.8 292.176)"><rect width="27" height="27" transform="translate(-0.052 -0.053)" opacity="0.06" fill="url(#a)" style="mix-blend-mode:multiply;isolation:isolate"/><g transform="translate(1.347 2.256)"><rect width="23" height="23" transform="translate(-0.4 0.691)" opacity="0.15" fill="url(#b)" style="mix-blend-mode:multiply;isolation:isolate"/><g transform="translate(0.823 0)"><path d="M430.8,348.126l1.592-5.812a11.221,11.221,0,1,1,9.722,5.618h0a11.212,11.212,0,0,1-5.361-1.365Zm6.223-3.59.341.2a9.313,9.313,0,0,0,4.746,1.3h0a9.324,9.324,0,1,0-7.9-4.369l.222.353-.942,3.44Z" transform="translate(-430.804 -325.491)" fill="#fff"/></g></g></g><path d="M438.058,354.628l1.537-5.611a10.832,10.832,0,1,1,9.386,5.423h0a10.827,10.827,0,0,1-5.176-1.318Z" transform="translate(-42.697 -37.953)" fill="url(#c)"/><g transform="translate(394.148 293.524)"><rect width="23" height="23" transform="translate(-0.4 -0.4)" opacity="0.04" fill="url(#d)" style="mix-blend-mode:multiply;isolation:isolate"/><g transform="translate(0.823 0.909)"><path d="M430.8,348.126l1.592-5.812a11.221,11.221,0,1,1,9.722,5.618h0a11.212,11.212,0,0,1-5.361-1.365Zm6.223-3.59.341.2a9.313,9.313,0,0,0,4.746,1.3h0a9.324,9.324,0,1,0-7.9-4.369l.222.353-.942,3.44Z" transform="translate(-430.804 -325.491)" fill="url(#e)"/></g></g><g transform="translate(399.537 300.261)"><rect width="13" height="12" transform="translate(0.211 -0.137)" opacity="0.06" fill="url(#f)" style="mix-blend-mode:multiply;isolation:isolate"/><g transform="translate(1.046 0.208)"><path d="M538.04,438.183c-.21-.467-.431-.476-.631-.484-.163-.007-.351-.007-.537-.007a1.03,1.03,0,0,0-.747.351,3.142,3.142,0,0,0-.981,2.338,5.453,5.453,0,0,0,1.145,2.9,11.507,11.507,0,0,0,4.789,4.232c2.368.934,2.85.748,3.364.7a2.831,2.831,0,0,0,1.892-1.333,2.342,2.342,0,0,0,.164-1.333c-.07-.117-.257-.187-.537-.327s-1.659-.818-1.916-.912-.444-.14-.631.141-.724.912-.887,1.1-.327.211-.607.071a7.67,7.67,0,0,1-2.254-1.391,8.441,8.441,0,0,1-1.56-1.941c-.164-.28-.018-.432.123-.572s.28-.327.421-.491a1.912,1.912,0,0,0,.28-.467.516.516,0,0,0-.023-.491C538.834,440.124,538.289,438.737,538.04,438.183Z" transform="translate(-535.143 -437.692)" fill="#fff" fill-rule="evenodd"/></g></g></g></svg>